# xmcd
#
# Track frame offsets:
# 150
# 16030
# 30908
# 47454
# 64923
# 78174
# 92003
# 112772
# 133365
# 149656
# 165557
# 182288
# 195200
# 208671
# 232026
# 250772
#
# Disc length: 3607 seconds
#
#
# Revision: 0
# Processed by: cddbd v1.5.1PL0 Copyright (c) Steve Scherf et al.
# Submitted via: FreeRIP 2.942 
#
DISCID=c40e1510
DTITLE=Various Artist - Blues Guitar
DYEAR=1900
DGENRE=Blues
TTITLE0=Route 66
TTITLE1=Green onions
TTITLE2=Georgia on my mind
TTITLE3=Bags groove
TTITLE4=Tell me what I say
TTITLE5=Boom boom
TTITLE6=They'll get you in the end
TTITLE7=Mr. lucky
TTITLE8=Dark blues
TTITLE9=Moanin'
TTITLE10=Don't start till you get the blues
TTITLE11=Too many cooks
TTITLE12=Jump up blues
TTITLE13=Baloney again
TTITLE14=Mean city blues
TTITLE15=Every day I have the blues
EXTD=
EXTT0=
EXTT1=
EXTT2=
EXTT3=
EXTT4=
EXTT5=
EXTT6=
EXTT7=
EXTT8=
EXTT9=
EXTT10=
EXTT11=
EXTT12=
EXTT13=
EXTT14=
EXTT15=
PLAYORDER=
